HIERARCHY
ROOT hip
{
  OFFSET 0 0 0
  CHANNELS 6 Xposition Yposition Zposition Zrotation Yrotation Xrotation
  JOINT abdomen
  {
    OFFSET 0 20.6881 -0.73152
    CHANNELS 3 Zrotation Xrotation Yrotation
    JOINT chest
    {
      OFFSET 0 11.7043 -0.48768
      CHANNELS 3 Zrotation Xrotation Yrotation
      JOINT neck
      {
        OFFSET 0 22.1894 -2.19456
        CHANNELS 3 Zrotation Xrotation Yrotation
        JOINT head
        {
          OFFSET -0.24384 7.07133 1.2192
          CHANNELS 3 Zrotation Xrotation Yrotation
          JOINT leftEye
          {
            OFFSET 4.14528 8.04674 8.04672
            CHANNELS 3 Zrotation Xrotation Yrotation
            End Site
            {
              OFFSET 1 0 0
            }
          }
          JOINT rightEye
          {
            OFFSET -3.6576 8.04674 8.04672
            CHANNELS 3 Zrotation Xrotation Yrotation
            End Site
            {
              OFFSET 1 0 0
            }
          }
        }
      }
      JOINT rCollar
      {
        OFFSET -2.68224 19.2634 -4.8768
        CHANNELS 3 Zrotation Xrotation Yrotation
        JOINT rShldr
        {
          OFFSET -8.77824 -1.95073 1.46304
          CHANNELS 3 Zrotation Xrotation Yrotation
          JOINT rForeArm
          {
            OFFSET -28.1742 -1.7115 0.48768
            CHANNELS 3 Zrotation Xrotation Yrotation
            JOINT rHand
            {
              OFFSET -22.5879 0.773209 7.07136
              CHANNELS 3 Zrotation Xrotation Yrotation
              JOINT rThumb1
              {
                OFFSET -1.2192 -0.487915 3.41376
                CHANNELS 3 Zrotation Xrotation Yrotation
                JOINT rThumb2
                {
                  OFFSET -3.37035 -0.52449 3.41376
                  CHANNELS 3 Zrotation Xrotation Yrotation
                  End Site
                  {
                    OFFSET -1.78271 -1.18214 1.43049
                  }
                }
              }
              JOINT rIndex1
              {
                OFFSET -7.75947 0.938293 5.60832
                CHANNELS 3 Zrotation Xrotation Yrotation
                JOINT rIndex2
                {
                  OFFSET -2.54057 -0.884171 1.56538
                  CHANNELS 3 Zrotation Xrotation Yrotation
                  End Site
                  {
                    OFFSET -1.62519 -0.234802 1.16502
                  }
                }
              }
              JOINT rMid1
              {
                OFFSET -8.24714 1.18213 3.41376
                CHANNELS 3 Zrotation Xrotation Yrotation
                JOINT rMid2
                {
                  OFFSET -3.10165 -0.590103 1.0647
                  CHANNELS 3 Zrotation Xrotation Yrotation
                  End Site
                  {
                    OFFSET -2.48547 -0.328903 0.83742
                  }
                }
              }
              JOINT rRing1
              {
                OFFSET -8.82822 0.546677 1.51678
                CHANNELS 3 Zrotation Xrotation Yrotation
                JOINT rRing2
                {
                  OFFSET -2.60934 -0.819778 -0.0198488
                  CHANNELS 3 Zrotation Xrotation Yrotation
                  End Site
                  {
                    OFFSET -2.33842 -0.294052 0.168128
                  }
                }
              }
              JOINT rPinky1
              {
                OFFSET -8.27202 -0.0477905 -0.4584
                CHANNELS 3 Zrotation Xrotation Yrotation
                JOINT rPinky2
                {
                  OFFSET -1.82734 -0.647385 -0.700984
                  CHANNELS 3 Zrotation Xrotation Yrotation
                  End Site
                  {
                    OFFSET -1.69225 -0.51767 -0.607171
                  }
                }
              }
            }
          }
        }
      }
      JOINT lCollar
      {
        OFFSET 2.68224 19.2634 -4.8768
        CHANNELS 3 Zrotation Xrotation Yrotation
        JOINT lShldr
        {
          OFFSET 8.77824 -1.95073 1.46304
          CHANNELS 3 Zrotation Xrotation Yrotation
          JOINT lForeArm
          {
            OFFSET 28.1742 -1.7115 0.48768
            CHANNELS 3 Zrotation Xrotation Yrotation
            JOINT lHand
            {
              OFFSET 22.5879 0.773209 7.07136
              CHANNELS 3 Zrotation Xrotation Yrotation
              JOINT lThumb1
              {
                OFFSET 1.2192 -0.487915 3.41376
                CHANNELS 3 Zrotation Xrotation Yrotation
                JOINT lThumb2
                {
                  OFFSET 3.37035 -0.52449 3.41376
                  CHANNELS 3 Zrotation Xrotation Yrotation
                  End Site
                  {
                    OFFSET 1.78271 -1.18214 1.43049
                  }
                }
              }
              JOINT lIndex1
              {
                OFFSET 7.75947 0.938293 5.60832
                CHANNELS 3 Zrotation Xrotation Yrotation
                JOINT lIndex2
                {
                  OFFSET 2.54057 -0.884171 1.56538
                  CHANNELS 3 Zrotation Xrotation Yrotation
                  End Site
                  {
                    OFFSET 1.62519 -0.234802 1.16502
                  }
                }
              }
              JOINT lMid1
              {
                OFFSET 8.24714 1.18213 3.41376
                CHANNELS 3 Zrotation Xrotation Yrotation
                JOINT lMid2
                {
                  OFFSET 3.10165 -0.590103 1.0647
                  CHANNELS 3 Zrotation Xrotation Yrotation
                  End Site
                  {
                    OFFSET 2.48547 -0.328903 0.83742
                  }
                }
              }
              JOINT lRing1
              {
                OFFSET 8.82822 0.546677 1.51678
                CHANNELS 3 Zrotation Xrotation Yrotation
                JOINT lRing2
                {
                  OFFSET 2.60934 -0.819778 -0.0198488
                  CHANNELS 3 Zrotation Xrotation Yrotation
                  End Site
                  {
                    OFFSET 2.33842 -0.294052 0.168128
                  }
                }
              }
              JOINT lPinky1
              {
                OFFSET 8.27202 -0.0477905 -0.4584
                CHANNELS 3 Zrotation Xrotation Yrotation
                JOINT lPinky2
                {
                  OFFSET 1.82734 -0.647385 -0.700984
                  CHANNELS 3 Zrotation Xrotation Yrotation
                  End Site
                  {
                    OFFSET 1.69225 -0.51767 -0.607171
                  }
                }
              }
            }
          }
        }
      }
    }
  }
  JOINT rButtock
  {
    OFFSET -8.77824 4.35084 1.2192
    CHANNELS 3 Zrotation Xrotation Yrotation
    JOINT rThigh
    {
      OFFSET 0 -1.70687 -2.19456
      CHANNELS 3 Zrotation Xrotation Yrotation
      JOINT rShin
      {
        OFFSET 0 -36.8199 0.73152
        CHANNELS 3 Zrotation Xrotation Yrotation
        JOINT rFoot
        {
          OFFSET 0.73152 -45.1104 -5.12064
          CHANNELS 3 Zrotation Xrotation Yrotation
          End Site
          {
            OFFSET -1.1221 -3.69964 12.103
          }
        }
      }
    }
  }
  JOINT lButtock
  {
    OFFSET 8.77824 4.35084 1.2192
    CHANNELS 3 Zrotation Xrotation Yrotation
    JOINT lThigh
    {
      OFFSET 0 -1.70687 -2.19456
      CHANNELS 3 Zrotation Xrotation Yrotation
      JOINT lShin
      {
        OFFSET 0 -36.8199 0.73152
        CHANNELS 3 Zrotation Xrotation Yrotation
        JOINT lFoot
        {
          OFFSET -0.73152 -45.1104 -5.12064
          CHANNELS 3 Zrotation Xrotation Yrotation
          End Site
          {
            OFFSET 1.1221 -3.69964 12.103
          }
        }
      }
    }
  }
}
MOTION
Frames:	7
Frame Time:	0.00833333
7.69973 84.4331 -138.487 1.0556 -0.908 4.6615 -2.76783 -0.305094 3.91277 6.92462 -2.05688 1.13665 -6.51036 -1.23027 -1.76724 -8.78136 1.20408 -1.43883 -0.0 0.0 0.0 -0.0 0.0 0.0 5.30785e-15 -1.78578e-13 1.75994e-15 64.2322 1.6749 7.98941 -12.0289 -5.46861 21.6661 -0.113326 -9.55883 -1.35613 9.91293e-10 -1.2638e-09 1.16932e-09 1.70717e-09 -2.1749e-09 2.02831e-09 9.91298e-10 -1.2638e-09 1.16931e-09 7.73091 5.47488 0.417314 9.91295e-10 -1.2638e-09 1.16932e-09 2.90554 0.965183 0.102902 9.91296e-10 -1.2638e-09 1.16932e-09 10.2786 0.731801 0.0259123 9.91293e-10 -1.2638e-09 1.16933e-09 2.22167 -0.733487 -0.20892 5.22535e-15 -1.78576e-13 1.66016e-15 -86.4645 17.0614 6.47355 14.6124 -7.45889 -26.7955 0.0921998 8.63208 -1.22252 6.18047e-10 -1.65819e-10 -5.55756e-10 1.0639e-09 -2.89093e-10 -9.65852e-10 6.18045e-10 -1.65818e-10 -5.55745e-10 -7.73091 5.47488 -0.417314 6.18049e-10 -1.65818e-10 -5.55747e-10 -2.90554 0.965183 -0.102902 6.18045e-10 -1.65819e-10 -5.55753e-10 -10.2786 0.731801 -0.0259123 6.18053e-10 -1.65818e-10 -5.55766e-10 -2.22167 -0.733487 0.20892 -2.03217e-16 0.0 -3.88251e-19 -4.36026 -5.12725 -5.73602 -0.703591 52.0754 0.953218 0.276936 9.33755 -11.5336 2.03217e-16 0.0 3.88251e-19 -6.07855 -24.0279 0.840218 0.125124 22.4357 0.0295113 0.124775 -7.17271 -1.98777
7.82489 84.4274 -137.843 1.3948 -0.9083 4.4949 -3.04459 -0.044171 3.63639 6.95623 -2.00637 1.04909 -6.64674 -1.17749 -1.74244 -8.45937 0.913322 -1.3785 -0.0 0.0 0.0 -0.0 0.0 0.0 -1.13622e-14 -1.02675e-13 -1.72384e-15 64.5251 1.52052 7.47915 -11.9764 -5.43167 21.565 -0.106053 -9.25373 -1.31205 7.81004e-10 -1.02499e-09 7.18814e-10 1.34575e-09 -1.76581e-09 1.24789e-09 7.81006e-10 -1.02499e-09 7.18807e-10 7.73091 5.47488 0.417314 7.81005e-10 -1.02499e-09 7.18816e-10 2.90554 0.965183 0.102902 7.81007e-10 -1.02499e-09 7.18814e-10 10.2786 0.731801 0.0259123 7.81002e-10 -1.02499e-09 7.18825e-10 2.22167 -0.733487 -0.20892 -1.13963e-14 -1.0267e-13 -1.85118e-15 -86.2481 17.5712 6.1673 14.759 -7.58318 -27.0947 0.0813958 8.12637 -1.14985 8.43079e-10 1.27847e-10 -5.68757e-11 1.45675e-09 2.19861e-10 -1.04083e-10 8.43076e-10 1.27848e-10 -5.68671e-11 -7.73091 5.47488 -0.417314 8.43081e-10 1.27847e-10 -5.68691e-11 -2.90554 0.965183 -0.102902 8.43077e-10 1.27846e-10 -5.68742e-11 -10.2786 0.731801 -0.0259123 8.43085e-10 1.27849e-10 -5.68862e-11 -2.22167 -0.733487 0.20892 -2.03217e-16 0.0 -3.88251e-19 -4.70759 -6.09526 -6.17881 -0.758761 53.4496 1.01837 0.000842943 8.01613 -11.8519 2.03217e-16 0.0 3.88251e-19 -6.53936 -23.3588 0.466875 0.122697 22.4264 0.0357675 0.172245 -7.45756 -1.72996
8.11248 84.4359 -137.163 2.0434 -0.3676 4.307 -3.28485 0.220196 3.362 6.9865 -1.95225 0.962445 -6.77005 -1.14069 -1.71531 -8.1692 0.634899 -1.31452 -0.0 0.0 0.0 -0.0 0.0 0.0 -3.30653e-14 -1.07202e-14 -2.41997e-15 64.8195 1.34713 6.98344 -11.9182 -5.39109 21.4524 -0.0995121 -8.96638 -1.27062 5.2597e-10 -6.57959e-10 2.17275e-10 9.07108e-10 -1.1352e-09 3.79016e-10 5.25971e-10 -6.57955e-10 2.17262e-10 7.73091 5.47488 0.417314 5.25971e-10 -6.5796e-10 2.17274e-10 2.90554 0.965183 0.102902 5.25973e-10 -6.57958e-10 2.17275e-10 10.2786 0.731801 0.0259123 5.25967e-10 -6.57958e-10 2.17287e-10 2.22167 -0.733487 -0.20892 -3.30503e-14 -1.07109e-14 -2.58575e-15 -86.0071 18.0362 5.82009 14.8936 -7.69862 -27.3699 0.0724684 7.6741 -1.08505 1.04592e-09 4.40087e-10 5.19289e-10 1.81185e-09 7.6123e-10 8.91458e-10 1.04591e-09 4.40087e-10 5.19296e-10 -7.73091 5.47488 -0.417314 1.04592e-09 4.40087e-10 5.19294e-10 -2.90554 0.965183 -0.102902 1.04592e-09 4.40086e-10 5.19289e-10 -10.2786 0.731801 -0.0259123 1.04592e-09 4.4009e-10 5.19279e-10 -2.22167 -0.733487 0.20892 -2.03217e-16 0.0 -3.88251e-19 -5.01154 -7.05743 -6.55798 -0.811741 54.6741 1.08438 -0.293168 6.70342 -11.9989 2.03217e-16 0.0 3.88251e-19 -6.96041 -22.7109 0.0565674 0.120318 22.4543 0.0373329 0.226881 -7.74206 -1.44657
8.11983 84.4213 -136.531 1.6915 0.1212 4.2101 -3.50943 0.48494 3.07712 7.00694 -1.91965 0.874856 -6.8206 -1.1395 -1.69424 -8.00245 0.442445 -1.2737 -0.0 0.0 0.0 -0.0 0.0 0.0 -5.59332e-14 5.68466e-14 -2.68359e-15 65.1295 1.11155 6.51757 -11.8375 -5.33539 21.2959 -0.09432 -8.72656 -1.23611 4.02898e-10 -3.90437e-10 -1.1791e-10 6.95728e-10 -6.75006e-10 -2.01316e-10 4.02899e-10 -3.90431e-10 -1.17925e-10 7.73091 5.47488 0.417314 4.02899e-10 -3.90436e-10 -1.17913e-10 2.90554 0.965183 0.102902 4.02901e-10 -3.90435e-10 -1.1791e-10 10.2786 0.731801 0.0259123 4.02894e-10 -3.90435e-10 -1.17897e-10 2.22167 -0.733487 -0.20892 -5.58869e-14 5.6859e-14 -2.88238e-15 -85.7437 18.3819 5.47607 15.0196 -7.80735 -27.6291 0.0662952 7.32679 -1.03542 1.17233e-09 6.6667e-10 9.04035e-10 2.03311e-09 1.1539e-09 1.5562e-09 1.17233e-09 6.66668e-10 9.04041e-10 -7.73091 5.47488 -0.417314 1.17234e-09 6.66668e-10 9.04038e-10 -2.90554 0.965183 -0.102902 1.17233e-09 6.66668e-10 9.04034e-10 -10.2786 0.731801 -0.0259123 1.17234e-09 6.66672e-10 9.04025e-10 -2.22167 -0.733487 0.20892 -2.03217e-16 0.0 -3.88251e-19 -5.2878 -8.03446 -6.85828 -0.861757 55.7646 1.14831 -0.583737 5.42425 -11.9952 2.03217e-16 0.0 3.88251e-19 -7.34058 -22.1385 -0.319148 0.118669 22.5579 0.034186 0.269679 -8.03913 -1.22625
8.19434 84.3792 -135.958 1.8396 0.3399 4.1195 -3.70543 0.755078 2.77188 7.01106 -1.91128 0.783767 -6.75568 -1.20827 -1.68492 -8.02471 0.384335 -1.27269 -0.0 0.0 0.0 -0.0 0.0 0.0 -8.59404e-14 9.37793e-14 -3.85534e-15 65.461 0.790038 6.10228 -11.729 -5.26067 21.0863 -0.0914997 -8.58567 -1.21588 5.07868e-10 -2.70383e-10 -2.25356e-10 8.77302e-10 -4.67323e-10 -3.86314e-10 5.07871e-10 -2.70378e-10 -2.25371e-10 7.73091 5.47488 0.417314 5.07868e-10 -2.70382e-10 -2.25358e-10 2.90554 0.965183 0.102902 5.07871e-10 -2.70381e-10 -2.25355e-10 10.2786 0.731801 0.0259123 5.07862e-10 -2.7038e-10 -2.25342e-10 2.22167 -0.733487 -0.20892 -8.58868e-14 9.37936e-14 -4.08246e-15 -85.4454 18.5608 5.11521 15.1278 -7.90087 -27.8534 0.0629869 7.12551 -1.00672 1.20998e-09 8.13133e-10 1.02593e-09 2.09841e-09 1.40719e-09 1.76649e-09 1.20998e-09 8.13131e-10 1.02594e-09 -7.73091 5.47488 -0.417314 1.20999e-09 8.13131e-10 1.02594e-09 -2.90554 0.965183 -0.102902 1.20998e-09 8.13131e-10 1.02593e-09 -10.2786 0.731801 -0.0259123 1.20999e-09 8.13134e-10 1.02593e-09 -2.22167 -0.733487 0.20892 -2.03217e-16 0.0 -3.88251e-19 -5.51054 -9.03795 -7.06978 -0.906717 56.708 1.20839 -0.851934 4.20841 -11.7847 2.03217e-16 0.0 3.88251e-19 -7.66519 -21.6766 -0.653365 0.118176 22.7655 0.0252854 0.293841 -8.34769 -1.09568
8.24884 84.313 -135.28 1.7485 0.6307 3.8129 -3.86755 1.03028 2.45507 7.00469 -1.91507 0.690858 -6.61604 -1.32681 -1.68174 -8.17373 0.411725 -1.29399 -0.0 0.0 0.0 -0.0 0.0 0.0 -1.22814e-13 1.20133e-13 -4.4416e-15 65.8045 0.409648 5.724 -11.6015 -5.17311 20.8411 -0.090145 -8.51336 -1.20551 7.30317e-10 -1.80597e-10 -2.22144e-10 1.26128e-09 -3.10588e-10 -3.79128e-10 7.30324e-10 -1.80595e-10 -2.22157e-10 7.73091 5.47488 0.417314 7.30316e-10 -1.80596e-10 -2.22144e-10 2.90554 0.965183 0.102902 7.3032e-10 -1.80595e-10 -2.22142e-10 10.2786 0.731801 0.0259123 7.30309e-10 -1.80593e-10 -2.22128e-10 2.22167 -0.733487 -0.20892 -1.22767e-13 1.20149e-13 -4.69939e-15 -85.1186 18.6212 4.72527 15.2202 -7.98146 -28.0453 0.0613573 7.03369 -0.993607 1.18709e-09 9.23956e-10 1.02822e-09 2.05783e-09 1.59848e-09 1.77003e-09 1.18708e-09 9.23954e-10 1.02823e-09 -7.73091 5.47488 -0.417314 1.18709e-09 9.23954e-10 1.02822e-09 -2.90554 0.965183 -0.102902 1.18708e-09 9.23954e-10 1.02822e-09 -10.2786 0.731801 -0.0259123 1.18709e-09 9.23957e-10 1.02821e-09 -2.22167 -0.733487 0.20892 -2.03217e-16 0.0 -3.88251e-19 -5.67436 -10.0558 -7.20217 -0.945754 57.5016 1.26478 -1.09196 3.03036 -11.3779 2.03217e-16 0.0 3.88251e-19 -7.94248 -21.2895 -0.981412 0.118517 23.0504 0.0109402 0.309058 -8.66241 -1.00671
8.34881 84.3068 -134.623 2.0029 0.8053 3.6092 -4.02816 1.29945 2.14224 6.99769 -1.934 0.600598 -6.46709 -1.43302 -1.67609 -8.34967 0.45243 -1.31324 -0.0 0.0 0.0 -0.0 0.0 0.0 -1.53318e-13 1.3492e-13 -2.54615e-15 66.1501 0.00333933 5.34658 -11.4591 -5.07625 20.568 -0.0880564 -8.41677 -1.19162 9.36988e-10 -1.01073e-10 -1.58578e-10 1.61776e-09 -1.7128e-10 -2.67681e-10 9.36998e-10 -1.01074e-10 -1.58588e-10 7.73091 5.47488 0.417314 9.36986e-10 -1.01072e-10 -1.58576e-10 2.90554 0.965183 0.102902 9.36991e-10 -1.01071e-10 -1.58575e-10 10.2786 0.731801 0.0259123 9.36978e-10 -1.01068e-10 -1.58561e-10 2.22167 -0.733487 -0.20892 -1.53284e-13 1.34937e-13 -2.82996e-15 -84.7955 18.6334 4.36254 15.317 -8.06699 -28.2454 0.0603556 6.98641 -0.986836 1.11024e-09 9.53316e-10 9.64173e-10 1.92359e-09 1.64879e-09 1.65926e-09 1.11024e-09 9.53314e-10 9.64198e-10 -7.73091 5.47488 -0.417314 1.11025e-09 9.53315e-10 9.64179e-10 -2.90554 0.965183 -0.102902 1.11024e-09 9.53314e-10 9.64179e-10 -10.2786 0.731801 -0.0259123 1.11025e-09 9.53316e-10 9.64174e-10 -2.22167 -0.733487 0.20892 -2.03217e-16 0.0 -3.88251e-19 -5.82574 -11.0732 -7.26951 -0.97997 58.1769 1.31746 -1.31075 1.83372 -10.895 2.03217e-16 0.0 3.88251e-19 -8.2085 -20.9261 -1.29612 0.119252 23.3693 -0.00684493 0.320239 -8.98988 -0.9358
